<svg xmlns="http://www.w3.org/2000/svg" viewBox="0 0 1024 1024">
  <title>noise.dog</title>
  <g transform="translate(0,1024) scale(0.1,-0.1)" fill="#e8e0d8" stroke="none">
    <path d="M5836 7378 c-48 -123 -124 -316 -168 -430 l-80 -207 65 -152 65 -152
-124 -366 c-69 -201 -136 -385 -149 -407 -28 -48 -80 -96 -133 -123 -20 -10
-154 -51 -297 -91 -143 -39 -395 -109 -560 -155 -165 -46 -334 -93 -376 -104
-125 -35 -219 -25 -347 35 -134 64 -240 190 -288 341 -24 77 -29 226 -10 308
46 194 197 372 382 450 71 30 198 55 277 55 42 0 77 4 77 8 0 25 -199 57 -300
48 -457 -38 -771 -458 -684 -917 43 -229 167 -409 377 -546 65 -42 95 -68 90
-76 -4 -7 -20 -31 -36 -54 -16 -24 -40 -71 -54 -105 -44 -110 -52 -187 -53
-518 0 -345 -4 -371 -70 -507 -30 -60 -62 -105 -120 -167 l-80 -84 2 -423 3
-424 210 0 210 0 0 110 0 110 -88 3 c-67 2 -89 6 -94 18 -7 18 66 434 79 451
5 6 48 33 96 60 171 95 312 208 421 338 123 145 221 310 276 468 15 43 32 80
37 83 10 6 1048 -274 1062 -287 4 -4 46 -306 92 -670 46 -365 86 -669 89 -676
3 -11 50 -13 212 -11 l208 3 0 110 0 110 -90 3 c-49 2 -94 7 -98 11 -5 5 1
174 12 377 11 203 25 454 31 557 5 104 12 193 16 198 3 5 24 19 47 30 83 43
215 140 291 216 159 159 254 344 292 572 23 134 15 238 -47 620 -47 291 -50
325 -36 336 8 6 102 24 209 39 106 15 218 35 248 43 100 27 187 102 257 223
36 61 88 209 77 220 -6 6 -125 47 -265 93 l-254 82 -61 113 c-34 62 -64 115
-67 118 -6 6 -315 78 -492 114 -60 13 -115 28 -122 34 -7 7 -19 126 -32 321
-26 387 -32 445 -41 445 -4 0 -46 -100 -94 -222z M6225 7230 c-82 -164 -147
-302 -143 -305 4 -4 60 -20 124 -37 137 -34 144 -31 144 51 0 25 9 165 20 311
11 146 20 268 20 273 0 30 -34 -30 -165 -293z M6428 4189 c-49 -62 -181 -173
-285 -242 -51 -33 -93 -65 -93 -70 0 -31 177 -1233 185 -1255 3 -10 51 -12
212 -10 l208 3 0 114 0 113 -100 2 -100 1 3 150 c2 83 7 357 12 610 12 579 12
625 0 625 -5 0 -24 -19 -42 -41z M4422 3967 c-103 -207 -249 -395 -415 -534
l-86 -73 40 -112 c59 -166 204 -557 222 -601 l16 -37 208 2 208 3 0 110 0 110
-119 5 -119 5 -63 235 c-35 129 -64 240 -64 246 0 6 26 28 58 49 154 101 259
210 364 375 65 104 124 238 111 251 -7 7 -281 89 -297 89 -2 0 -30 -55 -64
-123z"/>
  </g>
</svg>